<?xml version="1.0" encoding="UTF-8" standalone="no"?>
<svg
   width="75.838318"
   height="73.699379"
   version="1.1"
   viewBox="-5 -10 75.83832 73.699377"
   id="svg18"
   sodipodi:docname="color-palette--retro-game.svg"
   inkscape:version="1.2.2 (b0a8486541, 2022-12-01)"
   xmlns:inkscape="http://www.inkscape.org/namespaces/inkscape"
   xmlns:sodipodi="http://sodipodi.sourceforge.net/DTD/sodipodi-0.dtd"
   xmlns="http://www.w3.org/2000/svg"
   xmlns:svg="http://www.w3.org/2000/svg">
  <defs
     id="defs22" />
  <sodipodi:namedview
     id="namedview20"
     pagecolor="#ffffff"
     bordercolor="#000000"
     borderopacity="0.25"
     inkscape:showpageshadow="2"
     inkscape:pageopacity="0.0"
     inkscape:pagecheckerboard="0"
     inkscape:deskcolor="#d1d1d1"
     showgrid="false"
     inkscape:zoom="9.3072845"
     inkscape:cx="8.1119257"
     inkscape:cy="40.828235"
     inkscape:window-width="1920"
     inkscape:window-height="1008"
     inkscape:window-x="0"
     inkscape:window-y="0"
     inkscape:window-maximized="1"
     inkscape:current-layer="svg18" />
  <path
     d="m 6.5901126,52.575903 c -4.8125,-4.7831 -8.3271999,-11.025 -9.8871,-17.56 -1.1973,-5.0156 -1.2009,-10.932 -0.00986,-16.11 C -0.25174733,5.6259032 10.052152,-4.8670966 23.348152,-8.2380966 c 3.1578,-0.80047 4.5201,-0.95371 8.5439,-0.96109 3.471,-0.0064 3.8801,0.02273 4.9202,0.34997 2.2648,0.71258 4.2824,2.4708 5.2905,4.6103 0.71676,1.5213 0.89489,2.3263998 1.0726,4.84819979 0.15991,2.26860001 0.17929,2.38220001 0.67568,3.95840001 0.68418,2.1725 1.83,4.1103 3.4166,5.7780998 1.7752,1.866 3.5431,3.0411 5.8327,3.8766 1.7532,0.63983 2.7857,0.81254 5.7756,0.96606 1.9652,0.10091 2.8057,0.21364 3.5378,0.47448 1.8296,0.65187 3.478,2.0143 4.5074,3.7257 16.419777,36.516844 -36.079458,57.183539 -60.3310194,33.18728 z m 33.5719994,-22.8703 c 3.0942,-0.79138 4.7067,-2.5548 5.0151,-5.4846 0.30778,-2.9241 -1.2538,-5.8157 -3.8241,-7.081 -1.4378,-0.70783 -2.5127,-0.96265 -4.5495,-1.0785 -4.1989,-0.2388 -7.6293,1.3622 -8.9456,4.1749 -1.2384,2.6464 -0.95056,5.6255 0.72344,7.4874 1.1076,1.2319 2.7298,1.9608 5.1128,2.2973 1.5838,0.22363 5.014,0.05629 6.4678,-0.31553 z"
     fill="#008000"
     id="path14"
     style="fill:#ffcf45;fill-opacity:1;stroke:#151515;stroke-width:0.9;stroke-dasharray:none;stroke-opacity:1"
     sodipodi:nodetypes="ccccccccsccssccccccccccc" />
  <circle
     cx="13.151582"
     cy="31.388695"
     r="8.3500204"
     fill="#59f559"
     id="circle12-3-6-7-56"
     style="fill:#80ff80;fill-opacity:1;stroke:#151515;stroke-width:0.9;stroke-opacity:1;stroke-dasharray:none" />
  <circle
     cx="33.272919"
     cy="47.407681"
     r="8.3500204"
     fill="#59f559"
     id="circle12-3-6-7"
     style="fill:#74d6ff;fill-opacity:1;stroke:#151515;stroke-width:0.9;stroke-opacity:1;stroke-dasharray:none" />
  <circle
     cx="54.974922"
     cy="36.38184"
     r="8.3500204"
     fill="#59f559"
     id="circle12-3-6-7-5"
     style="fill:#80ff80;fill-opacity:1;stroke:#151515;stroke-width:0.9;stroke-opacity:1;stroke-dasharray:none" />
  <circle
     cx="20.782701"
     cy="7.224997"
     r="8.183857"
     fill="#59f559"
     id="circle12-3-6-7-6-3"
     style="fill:#74d6ff;fill-opacity:1;stroke:#151515;stroke-width:0.9;stroke-opacity:1;stroke-dasharray:none" />
</svg>
