<svg xmlns="http://www.w3.org/2000/svg" version="1.1" xmlns:xlink="http://www.w3.org/1999/xlink" width="500" height="500"><svg width="500" height="500" version="1.1" viewBox="0 0 132.29 132.29" xmlns="http://www.w3.org/2000/svg">
 <g fill="#5dad3e" stroke-width=".35085" aria-label="P">
  <path d="m53.306 22.024c12.911 0 22.314 2.8068 28.209 8.4205 5.9879 5.5201 8.9818 13.145 8.9818 22.876 0 5.8008-1.2163 11.274-3.6489 16.42-2.4326 5.0523-6.5025 9.1222-12.21 12.21-5.6136 3.0875-13.286 4.6313-23.016 4.6313h-9.1222v35.647h-21.191v-100.2zm-1.1227 17.402h-9.6835v29.752h7.017c5.9879 0 10.713-1.1695 14.174-3.5085 3.5553-2.4326 5.333-6.3153 5.333-11.648 0-9.7303-5.6136-14.595-16.841-14.595z"></path>
  <path d="m110.87 8.177c-0.17071-0.00597-0.35019-0.00879-0.53738-0.00612-8.3937 0.11199-16.781 0.054479-25.173 0.094124-3.3759 0.015929-6.7545 0.087895-10.133 0.18485-0.98332 0.028323-2.096 0.16964-2.4103 1.2762-0.31248 1.1005 0.57692 1.6404 1.4408 2.0954 0.46651 0.2457 0.96404 0.4427 1.4309 0.68791 6.0596 3.182 11.448 6.9049 16.006 11.297 5.1553 5.7964 8.9736 12.646 11.764 20.308 0.17435 0.47856 0.29329 0.97737 0.4681 1.4557 0.32401 0.8856 0.73206 1.81 1.9283 1.7069 1.2028-0.10372 1.541-1.1191 1.7393-2.0334 0.68096-3.1413 1.3352-6.2878 1.9316-9.4409 1.4827-7.8376 2.8635-15.687 4.4217-23.515 0.23645-1.1878 0.1987-2.0485-0.14778-2.6243-0.23471-0.97052-1.112-1.4291-2.7299-1.4877z" stroke-width=".63626"></path>
 </g>
</svg><style>@media (prefers-color-scheme: light) { :root { filter: none; } }
@media (prefers-color-scheme: dark) { :root { filter: none; } }
</style></svg>