<?xml version="1.0" encoding="UTF-8" standalone="no"?>
<svg
   width="90.573"
   height="90.037"
   version="1.1"
   viewBox="-5 -10 90.573 90.037"
   id="svg18"
   sodipodi:docname="color-palette.svg"
   inkscape:version="1.2.2 (b0a8486541, 2022-12-01)"
   xmlns:inkscape="http://www.inkscape.org/namespaces/inkscape"
   xmlns:sodipodi="http://sodipodi.sourceforge.net/DTD/sodipodi-0.dtd"
   xmlns="http://www.w3.org/2000/svg"
   xmlns:svg="http://www.w3.org/2000/svg">
  <defs
     id="defs22" />
  <sodipodi:namedview
     id="namedview20"
     pagecolor="#ffffff"
     bordercolor="#000000"
     borderopacity="0.25"
     inkscape:showpageshadow="2"
     inkscape:pageopacity="0.0"
     inkscape:pagecheckerboard="0"
     inkscape:deskcolor="#d1d1d1"
     showgrid="false"
     inkscape:zoom="9.3072845"
     inkscape:cx="50.014588"
     inkscape:cy="51.250179"
     inkscape:window-width="1920"
     inkscape:window-height="1008"
     inkscape:window-x="0"
     inkscape:window-y="0"
     inkscape:window-maximized="1"
     inkscape:current-layer="svg18" />
  <path
     d="m 126.74806,1.8342972 c -11.836,-0.018549 -23.454,6.0938 -30.223,15.7930008 -5.7298,8.039 -8.1365,18.408 -6.294,28.13 1.7954,9.82 7.6914,18.787 15.96,24.374 6.5741,4.513 14.62,6.8787 22.598,6.4386 3.5498,-0.16222 7.0806,-0.82862 10.417,-2.0588 0.1804,-0.54735 -0.3598,-1.0208 -0.86523,-0.74219 -6.8402,2.2631 -14.365,2.4075 -21.339,0.38992 -11.316,-3.2711 -20.658,-12.343 -24.431,-23.478 -3.1218,-8.9556 -2.3719,-19.047 1.8499,-27.546 3.8182,-7.7952 10.549,-14.1180008 18.529,-17.4360008 5.4004,-2.2767 11.441,-3.2861 17.254,-2.695 3.228,0.23666 6.1287,2.5692 7.2539,5.5134 0.65269,1.5640998 0.77319,3.2041998 0.76757,4.8342008 0.33274,5.3501 3.814,10.308 8.6641,12.552 2.3842,1.1505 5.0623,1.5421 7.6894,1.4242 2.97939,-0.0166 5.88469,1.6118 7.39789,4.1829 1.0086,1.5737 1.3253,3.4575 1.3503,5.2958 0.15329,2.2061 -0.0253,4.4563 -0.0723,6.6909 0.44544,0.2513 1.0601,-0.02396 0.98355,-0.57847 0.27088,-3.3728 0.3599,-6.8393 -0.5055,-10.137 -1.3648,-4.0137 -5.5881,-6.7357 -9.79599,-6.4973 -1.7052,0.06405 -3.427,-0.10132 -5.0629,-0.68394 -4.6942,-1.5855 -8.5485,-5.778 -9.4043,-10.707 -0.42941,-2.566001 -0.0465,-5.3755008 -1.4645,-7.6905008 -1.607,-3.0758 -4.8955,-5.2628 -8.4008,-5.2886 -0.94972,-0.084675 -1.9044,-0.083439 -2.8573,-0.079504 z"
     fill="#008000"
     id="path2" />
  <path
     d="m 122.93753,32.849685 c -3.8239,0.19166 -7.0238,2.6475 -9.7176,5.1538 -5.577,5.2333 -9.841,11.673 -13.641999,18.262 -2.0296,3.6277 -3.8296,7.4174 -4.9173,11.442 0.28268,0.54762 1.0265,0.34582 1.1328,-0.20898 1.6846,-5.7545 4.645399,-11.06 7.898799,-16.033 3.9283,-5.9352 8.2706,-11.909 14.308,-15.886 2.1052,-1.3085 4.8584,-2.2916 7.2466,-1.1433 1.922,0.9742 2.8925,3.2406 2.619,5.3283 -0.23458,3.6076 -2.1581,6.8001 -3.9657,9.8123 -3.9763,6.226 -9.148,11.587 -14.578,16.554 -2.5132,2.2162 -5.2176,4.2164 -8.0829,5.9543 -0.27908,0.48396 0.21826,1.038 0.70898,0.72656 6.8041,-4.0525 12.448,-9.7546 17.607,-15.702 3.7474,-4.428 7.2849,-9.2639 8.97,-14.887 0.74386,-2.5604 0.63869,-5.7042 -1.3793,-7.6733 -1.1136,-1.0811 -2.6483,-1.7315 -4.207,-1.6992 z"
     id="path4" />
  <path
     d="m 102.71879,75.460892 c -2.3312,0.10543 -4.126605,2.1747 -4.564105,4.3586 -1.2284,3.3843 -4.6652,5.4966 -8.1087,6.02 -1.1458,0.17084 -2.6456,0.20662 -3.211,1.4241 -0.56182,1.0884 -0.11138,2.5133 0.94348,3.1194 3.9374,3.6674 8.9282,6.6269 14.427005,6.8363 4.416,0.17237 9.0184,-1.8917 11.34,-5.7474 1.6785,-2.6789 2.054,-6.238 0.52678,-9.0709 -1.6858,-3.3038 -5.0054,-5.5108 -8.4698,-6.6089 -0.93515,-0.25963 -1.9128,-0.3878 -2.8835,-0.33129 z m 1.2188,1.0703 c 3.4167,0.48892 6.5157,2.5291 8.6074,5.2305 1.8609,2.6986 1.9594,6.5076 0.0882,9.2289 -2.4026,3.8386 -7.2516,5.7547 -11.595,5.0865 -5.017905,-0.59809 -9.391005,-3.4581 -13.014005,-6.8497 -0.60983,-0.56577 -0.54553,-1.6635 0.27437,-1.9989 1.0511,-0.44022 2.2504,-0.25231 3.314,-0.68249 3.3958,-0.91195 6.6272,-3.313 7.6308,-6.8045 0.46611,-1.4846 1.517805,-3.0549 3.209605,-3.1995 0.4923,-0.08896 0.9902,-0.08305 1.4842,-0.01081 z"
     id="path6" />
  <path
     d="m 98.834459,66.000838 c -0.93823,0.71588 -1.5938,1.7811 -2.6826,2.3147 -2.0102,1.2943 -4.4276,1.6563 -6.7275,2.0994 -1.5551,0.67719 -1.7059,3.1602 -0.22329,4.0033 3.8278,3.5936 8.6296,6.5348 13.974001,6.9276 3.4184,0.24246 7.0672,-0.68568 9.5974,-3.0832 -0.15975,-0.72766 -0.97225,-0.75295 -1.5684,-0.67383 -1.0697,-0.05457 -2.535,-0.35677 -2.7305,-1.6309 -0.18868,-1.5207 0.22432,-3.8139 -1.6973,-4.4512 -1.6484,-0.63428 -3.5297,0.57877 -5.0645,-0.51435 -1.4533,-0.86434 -2.140301,-2.567 -2.222601,-4.1966 -0.05698,-0.27727 -0.26242,-1.3096 -0.6543,-0.79492 z m -0.16016,2.5547 c 0.68927,1.9313 2.251501,3.8424 4.439501,3.9629 1.2642,0.0765 2.7739,-0.64704 3.8281,0.32617 0.87909,1.3151 -0.0533,3.1228 0.95898,4.4102 0.60617,0.82963 1.5878,1.2297 2.4492,1.7285 -4.1977,1.9752 -9.2577,1.7149 -13.351001,-0.39987 -2.8822,-1.3806 -5.545,-3.2758 -7.7279,-5.6059 -0.45357,-0.96307 0.65816,-2.042 1.628,-1.8146 2.7586,-0.32933 5.4292,-1.4528 7.5508,-3.2539 0.07487,0.2155 0.14974,0.43099 0.22461,0.64648 z"
     id="path8" />
  <circle
     cx="19.216999"
     cy="44.615002"
     r="6.0254998"
     fill="#59f559"
     id="circle10"
     style="fill-opacity:0.14913" />
  <circle
     cx="19.188999"
     cy="8.1034002"
     r="6.0254998"
     fill="#59f559"
     id="circle12"
     style="fill-opacity:0.14913" />
  <circle
     cx="9.0297832"
     cy="26.979351"
     r="6.0254998"
     fill="#59f559"
     id="circle12-3"
     style="fill-opacity:0.14913" />
  <circle
     cx="40.018463"
     cy="47.97633"
     r="6.0254998"
     fill="#59f559"
     id="circle12-3-6"
     style="fill-opacity:0.14913" />
  <circle
     cx="54.489265"
     cy="32.907249"
     r="6.0254998"
     fill="#59f559"
     id="circle12-3-6-7"
     style="fill-opacity:0.14913" />
  <path
     d="M 28.376,63.086 C 20.3803,62.18704 12.868,58.5231 6.94,52.632 2.1275,47.8489 -1.3872,41.607 -2.9471,35.072 -4.1444,30.0564 -4.148,24.14 -2.95696,18.962 c 3.0551,-13.28 13.359,-23.773 26.655,-27.144 3.1578,-0.80047 4.5201,-0.95371 8.5439,-0.96109 3.471,-0.0064 3.8801,0.02273 4.9202,0.34997 2.2648,0.71258 4.2824,2.4708 5.2905,4.6103 0.71676,1.5213 0.89489,2.3264 1.0726,4.8482 0.15991,2.2686 0.17929,2.3822 0.67568,3.9584 0.68418,2.1725 1.83,4.1103 3.4166,5.7781 1.7752,1.866 3.5431,3.0411 5.8327,3.8766 1.7532,0.63983 2.7857,0.81254 5.7756,0.96606 1.9652,0.10091 2.8057,0.21364 3.5378,0.47448 1.8296,0.65187 3.478,2.0143 4.5074,3.7257 1.0952,1.8208 1.3761,3.4048 1.3778,7.7703 l 0.001,3.179 -1.8124,2.0353 c -3.37,3.7845 -5.9288,7.3185 -9.1306,12.611 -2.6228,4.335 -4.4017,7.9351 -5.6615,11.457 -0.48919,1.3677 -0.66166,1.6844 -0.90092,1.6544 -0.16275,-0.0204 -0.79829,-0.11862 -1.4123,-0.21828 -1.3214,-0.21446 -2.4931,-0.09284 -3.4292,0.35594 -0.82134,0.39379 -2.2048,1.8657 -2.487,2.646 -0.19043,0.52664 -0.29598,0.594 -1.4996,0.95699 -1.6747,0.50503 -4.1109,0.98604 -6.0811,1.2006 -1.7994,0.196 -6.0873,0.19205 -7.8599,-0.007 z m 13.886,-8.6935 c 2.1943,-0.7392 3.8375,-2.454 4.3922,-4.5833 0.83429,-3.2031 -0.65358,-6.4738 -3.5743,-7.8573 -1.0317,-0.4887 -1.1929,-0.51701 -2.9441,-0.51701 -1.7226,0 -1.9204,0.03319 -2.8192,0.47298 -2.6794,1.3111 -4.3124,4.37 -3.8045,7.1264 0.48681,2.642 2.255,4.6675 4.7711,5.4653 1.0219,0.32404 2.8448,0.27497 3.9789,-0.10709 z M 22.303,51.0481 c 4.0238,-1.9829 5.0847,-7.0412 2.1922,-10.453 -1.8822,-2.2201 -5.3425,-2.9582 -7.9198,-1.6894 -1.2681,0.6243 -2.5805,1.9024 -3.1876,3.1042 -1.5425,3.0537 -0.49415,6.8169 2.4199,8.6869 1.2237,0.78526 1.9623,0.96517 3.7922,0.9238 1.466,-0.03315 1.7161,-0.0861 2.7032,-0.57254 z m 34.789,-11.746 c 3.1923,-1.4947 4.6865,-4.7656 3.6844,-8.0649 -0.86195,-2.8378 -3.3186,-4.7095 -6.2208,-4.7395 -1.5508,-0.01606 -2.6393,0.27233 -3.7588,0.99591 -2.1401,1.3832 -3.4742,4.0614 -3.1637,6.3509 0.35878,2.6453 2.1547,4.8867 4.6188,5.7644 1.3588,0.48401 3.4319,0.35261 4.8401,-0.30676 z M 10.896,33.5636 c 1.9537,-0.52187 3.5949,-1.9018 4.4771,-3.7643 0.4799,-1.0131 0.5169,-1.2126 0.5169,-2.7862 0,-1.5973 -0.03111,-1.7581 -0.54006,-2.7919 -0.65668,-1.3339 -1.9252,-2.6463 -3.1256,-3.2336 -4.0259,-1.9697 -8.7436,0.4559 -9.6482,4.9605 -0.48533,2.4167 0.82838,5.2954 3.1132,6.8219 1.3583,0.90752 3.537,1.2396 5.2067,0.7936 z m 29.616,-3.8019 c 3.0942,-0.79138 4.7067,-2.5548 5.0151,-5.4846 0.30778,-2.9241 -1.2538,-5.8157 -3.8241,-7.081 -1.4378,-0.70783 -2.5127,-0.96265 -4.5495,-1.0785 -4.1989,-0.2388 -7.6293,1.3622 -8.9456,4.1749 -1.2384,2.6464 -0.95056,5.6255 0.72344,7.4874 1.1076,1.2319 2.7298,1.9608 5.1128,2.2973 1.5838,0.22363 5.014,0.05629 6.4678,-0.31553 z M 21.505,14.2857 c 1.7302,-0.53439 3.1208,-1.7604 4.011,-3.5363 0.49543,-0.98833 0.52321,-1.138 0.52321,-2.8192 0,-1.6625 -0.0327,-1.8446 -0.51441,-2.8614 C 24.85902,3.6633 23.6977,2.502 22.2922,1.8362 21.2669,1.3505 21.1029,1.32179 19.3537,1.32179 c -1.7226,0 -1.9205,0.03319 -2.8192,0.47298 -2.6375,1.2906 -4.2669,4.3314 -3.7821,7.0583 0.35351,1.9884 1.2898,3.5074 2.8053,4.5512 1.7771,1.2239 3.8458,1.5305 5.9473,0.88142 z"
     fill="#008000"
     id="path14"
     style="fill-opacity:1;fill:#fff1a7" />
  <path
     style="fill:#d45500;fill-opacity:0.38334897;stroke:#000000;stroke-width:0.0429771"
     d="m 62.808527,72.797251 c -1.057709,-1.204746 -2.616248,-2.36108 -4.323652,-3.207866 -1.060883,-0.526144 -1.038696,-0.333309 -0.280476,-2.437683 1.713201,-4.754837 4.030756,-9.087684 8.131864,-15.203145 4.574783,-6.821793 8.703301,-11.340751 12.963251,-14.189207 4.505322,-3.012525 8.615152,-2.366 9.946414,1.564687 0.450858,1.331207 0.108063,4.146837 -0.774712,6.363293 -1.244297,3.124159 -3.71688,7.115183 -6.807305,10.98775 -3.93071,4.925515 -9.965966,10.886343 -14.351045,14.174065 -1.089399,0.81678 -3.750159,2.641678 -3.85165,2.641678 -0.02407,0 -0.317782,-0.312107 -0.652689,-0.693572 z"
     id="path931"
     transform="translate(-5,-10)" />
  <path
     style="fill:#1a1a1a;fill-opacity:0.383349;stroke:#000000;stroke-width:0.0429771"
     d="m 58.878613,85.99843 c -0.652222,-0.172721 -1.003975,-0.392487 -1.332496,-0.832506 -0.175864,-0.235549 -0.242568,-0.586819 -0.34761,-1.83053 -0.141803,-1.678977 -0.293122,-2.184585 -0.815263,-2.724081 -0.57495,-0.594059 -1.152408,-0.712973 -3.036852,-0.625366 -1.901964,0.08842 -2.237631,0.02543 -3.080375,-0.578044 -1.015133,-0.72692 -1.695282,-1.96653 -1.906849,-3.47534 -0.07006,-0.499637 -0.05917,-0.709723 0.04303,-0.830099 0.285105,-0.335802 0.806591,-1.3765 1.12813,-2.251338 0.71268,-1.939052 1.487593,-2.917256 2.609448,-3.294015 0.783913,-0.263265 2.052357,-0.23977 3.193224,0.05915 2.517799,0.659687 4.662164,1.952552 6.553891,3.951423 1.510912,1.596488 2.203139,3.170168 2.33103,5.299273 0.142021,2.364331 -0.790596,4.665105 -2.665929,6.57687 l -0.711418,0.725239 -0.685515,-0.0071 c -0.377032,-0.0039 -0.951435,-0.07749 -1.276449,-0.163565 z"
     id="path2658"
     transform="translate(-5,-10)" />
  <path
     style="fill:#ff00ff;fill-opacity:0.383349;stroke:#000000;stroke-width:0.0429771"
     d="m 51.67995,88.857871 c -2.130212,-0.218298 -4.186719,-0.849617 -6.364198,-1.953719 -2.441622,-1.238038 -4.448194,-2.645961 -6.233461,-4.373745 -0.975073,-0.943678 -1.047567,-1.043027 -1.047567,-1.435644 0,-0.320206 0.07355,-0.495357 0.305351,-0.727158 0.339484,-0.339484 0.70292,-0.449763 2.091039,-0.634494 1.115117,-0.148399 2.845512,-0.693651 3.92237,-1.235948 0.421996,-0.212513 1.229577,-0.699836 1.794625,-1.082938 0.872813,-0.591767 1.037327,-0.668534 1.093614,-0.510311 0.687286,1.931989 1.856593,3.351269 3.314976,4.023644 0.478245,0.22049 0.657825,0.241288 1.767908,0.204747 2.538072,-0.08355 2.656463,-0.07708 2.978085,0.162653 0.576873,0.429995 0.697467,0.792367 0.778056,2.337974 0.107236,2.056641 0.433215,2.608 2.100697,3.553094 l 0.624898,0.35418 -0.52794,0.238548 c -1.980736,0.894994 -4.451749,1.299105 -6.598453,1.079117 z"
     id="path2660"
     transform="translate(-5,-10)" />
</svg>
