<?xml version="1.0" encoding="UTF-8"?>
<svg width="90.573" height="90.037" version="1.1" viewBox="-5 -10 90.573 90.037" xmlns="http://www.w3.org/2000/svg">
 <path d="m32.126-9.9986c-11.836-0.018549-23.454 6.0938-30.223 15.793-5.7298 8.039-8.1365 18.408-6.294 28.13 1.7954 9.82 7.6914 18.787 15.96 24.374 6.5741 4.513 14.62 6.8787 22.598 6.4386 3.5498-0.16222 7.0806-0.82862 10.417-2.0588 0.1804-0.54735-0.3598-1.0208-0.86523-0.74219-6.8402 2.2631-14.365 2.4075-21.339 0.38992-11.316-3.2711-20.658-12.343-24.431-23.478-3.1218-8.9556-2.3719-19.047 1.8499-27.546 3.8182-7.7952 10.549-14.118 18.529-17.436 5.4004-2.2767 11.441-3.2861 17.254-2.695 3.228 0.23666 6.1287 2.5692 7.2539 5.5134 0.65269 1.5641 0.77319 3.2042 0.76757 4.8342 0.33274 5.3501 3.814 10.308 8.6641 12.552 2.3842 1.1505 5.0623 1.5421 7.6894 1.4242 2.9794-0.0166 5.8847 1.6118 7.3979 4.1829 1.0086 1.5737 1.3253 3.4575 1.3503 5.2958 0.15329 2.2061-0.02531 4.4563-0.07233 6.6909 0.44544 0.2513 1.0601-0.02396 0.98355-0.57847 0.27088-3.3728 0.3599-6.8393-0.5055-10.137-1.3648-4.0137-5.5881-6.7357-9.796-6.4973-1.7052 0.06405-3.427-0.10132-5.0629-0.68394-4.6942-1.5855-8.5485-5.778-9.4043-10.707-0.42941-2.566-0.04652-5.3755-1.4645-7.6905-1.607-3.0758-4.8955-5.2628-8.4008-5.2886-0.94972-0.084675-1.9044-0.083439-2.8573-0.079504z" fill="#008000"/>
 <path d="m79.563 24.71c-3.8239 0.19166-7.0238 2.6475-9.7176 5.1538-5.577 5.2333-9.841 11.673-13.642 18.262-2.0296 3.6277-3.8296 7.4174-4.9173 11.442 0.28268 0.54762 1.0265 0.34582 1.1328-0.20898 1.6846-5.7545 4.6454-11.06 7.8988-16.033 3.9283-5.9352 8.2706-11.909 14.308-15.886 2.1052-1.3085 4.8584-2.2916 7.2466-1.1433 1.922 0.9742 2.8925 3.2406 2.619 5.3283-0.23458 3.6076-2.1581 6.8001-3.9657 9.8123-3.9763 6.226-9.148 11.587-14.578 16.554-2.5132 2.2162-5.2176 4.2164-8.0829 5.9543-0.27908 0.48396 0.21826 1.038 0.70898 0.72656 6.8041-4.0525 12.448-9.7546 17.607-15.702 3.7474-4.428 7.2849-9.2639 8.97-14.887 0.74386-2.5604 0.63869-5.7042-1.3793-7.6733-1.1136-1.0811-2.6483-1.7315-4.207-1.6992z"/>
 <path d="m48.04 58.269c-2.3312 0.10543-4.1266 2.1747-4.5641 4.3586-1.2284 3.3843-4.6652 5.4966-8.1087 6.02-1.1458 0.17084-2.6456 0.20662-3.211 1.4241-0.56182 1.0884-0.11138 2.5133 0.94348 3.1194 3.9374 3.6674 8.9282 6.6269 14.427 6.8363 4.416 0.17237 9.0184-1.8917 11.34-5.7474 1.6785-2.6789 2.054-6.238 0.52678-9.0709-1.6858-3.3038-5.0054-5.5108-8.4698-6.6089-0.93515-0.25963-1.9128-0.3878-2.8835-0.33129zm1.2188 1.0703c3.4167 0.48892 6.5157 2.5291 8.6074 5.2305 1.8609 2.6986 1.9594 6.5076 0.08816 9.2289-2.4026 3.8386-7.2516 5.7547-11.595 5.0865-5.0179-0.59809-9.391-3.4581-13.014-6.8497-0.60983-0.56577-0.54553-1.6635 0.27437-1.9989 1.0511-0.44022 2.2504-0.25231 3.314-0.68249 3.3958-0.91195 6.6272-3.313 7.6308-6.8045 0.46611-1.4846 1.5178-3.0549 3.2096-3.1995 0.4923-0.08896 0.9902-0.08305 1.4842-0.01081z"/>
 <path d="m42.591 64.644c-0.93823 0.71588-1.5938 1.7811-2.6826 2.3147-2.0102 1.2943-4.4276 1.6563-6.7275 2.0994-1.5551 0.67719-1.7059 3.1602-0.22329 4.0033 3.8278 3.5936 8.6296 6.5348 13.974 6.9276 3.4184 0.24246 7.0672-0.68568 9.5974-3.0832-0.15975-0.72766-0.97225-0.75295-1.5684-0.67383-1.0697-0.05457-2.535-0.35677-2.7305-1.6309-0.18868-1.5207 0.22432-3.8139-1.6973-4.4512-1.6484-0.63428-3.5297 0.57877-5.0645-0.51435-1.4533-0.86434-2.1403-2.567-2.2226-4.1966-0.05698-0.27727-0.26242-1.3096-0.6543-0.79492zm-0.16016 2.5547c0.68927 1.9313 2.2515 3.8424 4.4395 3.9629 1.2642 0.0765 2.7739-0.64704 3.8281 0.32617 0.87909 1.3151-0.05331 3.1228 0.95898 4.4102 0.60617 0.82963 1.5878 1.2297 2.4492 1.7285-4.1977 1.9752-9.2577 1.7149-13.351-0.39987-2.8822-1.3806-5.545-3.2758-7.7279-5.6059-0.45357-0.96307 0.65816-2.042 1.628-1.8146 2.7586-0.32933 5.4292-1.4528 7.5508-3.2539 0.07487 0.2155 0.14974 0.43099 0.22461 0.64648z"/>
 <g fill-opacity=".14913">
  <circle cx="19.217" cy="44.615" r="6.0255" fill="#59f559"/>
  <circle cx="19.189" cy="8.1034" r="6.0255" fill="#59f559"/>
  <path d="m28.376 63.086c-7.9957-0.89896-15.508-4.5629-21.436-10.454-4.8125-4.7831-8.3272-11.025-9.8871-17.56-1.1973-5.0156-1.2009-10.932-0.00986-16.11 3.0551-13.28 13.359-23.773 26.655-27.144 3.1578-0.80047 4.5201-0.95371 8.5439-0.96109 3.471-0.0064 3.8801 0.02273 4.9202 0.34997 2.2648 0.71258 4.2824 2.4708 5.2905 4.6103 0.71676 1.5213 0.89489 2.3264 1.0726 4.8482 0.15991 2.2686 0.17929 2.3822 0.67568 3.9584 0.68418 2.1725 1.83 4.1103 3.4166 5.7781 1.7752 1.866 3.5431 3.0411 5.8327 3.8766 1.7532 0.63983 2.7857 0.81254 5.7756 0.96606 1.9652 0.10091 2.8057 0.21364 3.5378 0.47448 1.8296 0.65187 3.478 2.0143 4.5074 3.7257 1.0952 1.8208 1.3761 3.4048 1.3778 7.7703l1e-3 3.179-1.8124 2.0353c-3.37 3.7845-5.9288 7.3185-9.1306 12.611-2.6228 4.335-4.4017 7.9351-5.6615 11.457-0.48919 1.3677-0.66166 1.6844-0.90092 1.6544-0.16275-0.0204-0.79829-0.11862-1.4123-0.21828-1.3214-0.21446-2.4931-0.09284-3.4292 0.35594-0.82134 0.39379-2.2048 1.8657-2.487 2.646-0.19043 0.52664-0.29598 0.594-1.4996 0.95699-1.6747 0.50503-4.1109 0.98604-6.0811 1.2006-1.7994 0.196-6.0873 0.19205-7.8599-7e-3zm13.886-8.6935c2.1943-0.7392 3.8375-2.454 4.3922-4.5833 0.83429-3.2031-0.65358-6.4738-3.5743-7.8573-1.0317-0.4887-1.1929-0.51701-2.9441-0.51701-1.7226 0-1.9204 0.03319-2.8192 0.47298-2.6794 1.3111-4.3124 4.37-3.8045 7.1264 0.48681 2.642 2.255 4.6675 4.7711 5.4653 1.0219 0.32404 2.8448 0.27497 3.9789-0.10709zm-19.959-3.3444c4.0238-1.9829 5.0847-7.0412 2.1922-10.453-1.8822-2.2201-5.3425-2.9582-7.9198-1.6894-1.2681 0.6243-2.5805 1.9024-3.1876 3.1042-1.5425 3.0537-0.49415 6.8169 2.4199 8.6869 1.2237 0.78526 1.9623 0.96517 3.7922 0.9238 1.466-0.03315 1.7161-0.0861 2.7032-0.57254zm34.789-11.746c3.1923-1.4947 4.6865-4.7656 3.6844-8.0649-0.86195-2.8378-3.3186-4.7095-6.2208-4.7395-1.5508-0.01606-2.6393 0.27233-3.7588 0.99591-2.1401 1.3832-3.4742 4.0614-3.1637 6.3509 0.35878 2.6453 2.1547 4.8867 4.6188 5.7644 1.3588 0.48401 3.4319 0.35261 4.8401-0.30676zm-46.196-5.7385c1.9537-0.52187 3.5949-1.9018 4.4771-3.7643 0.4799-1.0131 0.5169-1.2126 0.5169-2.7862 0-1.5973-0.03111-1.7581-0.54006-2.7919-0.65668-1.3339-1.9252-2.6463-3.1256-3.2336-4.0259-1.9697-8.7436 0.4559-9.6482 4.9605-0.48533 2.4167 0.82838 5.2954 3.1132 6.8219 1.3583 0.90752 3.537 1.2396 5.2067 0.7936zm29.616-3.8019c3.0942-0.79138 4.7067-2.5548 5.0151-5.4846 0.30778-2.9241-1.2538-5.8157-3.8241-7.081-1.4378-0.70783-2.5127-0.96265-4.5495-1.0785-4.1989-0.2388-7.6293 1.3622-8.9456 4.1749-1.2384 2.6464-0.95056 5.6255 0.72344 7.4874 1.1076 1.2319 2.7298 1.9608 5.1128 2.2973 1.5838 0.22363 5.014 0.05629 6.4678-0.31553zm-19.007-15.476c1.7302-0.53439 3.1208-1.7604 4.011-3.5363 0.49543-0.98833 0.52321-1.138 0.52321-2.8192 0-1.6625-0.0327-1.8446-0.51441-2.8614-0.66578-1.4055-1.8271-2.5668-3.2326-3.2326-1.0253-0.4857-1.1893-0.51441-2.9385-0.51441-1.7226 0-1.9205 0.03319-2.8192 0.47298-2.6375 1.2906-4.2669 4.3314-3.7821 7.0583 0.35351 1.9884 1.2898 3.5074 2.8053 4.5512 1.7771 1.2239 3.8458 1.5305 5.9473 0.88142z" fill="#008000"/>
 </g>
</svg>
