<?xml version="1.0" encoding="UTF-8"?>
<!-- Created with Inkscape (http://www.inkscape.org/) -->
<svg width="55.137mm" height="55.137mm" version="1.1" viewBox="0 0 55.137 55.137" xmlns="http://www.w3.org/2000/svg">
 <g transform="translate(-72.647 -101.58)">
  <path d="m106.64 140.14-0.41249 1.6862c-1.2374 0.48842-2.2259 0.86016-2.962 1.1157q-1.1054 0.38418-2.5686 0.38392c-1.4981 0-2.6633-0.36698-3.4944-1.0959-0.83106-0.73184-1.2467-1.6592-1.2467-2.7842 0-0.4355 0.0302-0.88344 0.0929-1.3398 0.0632-0.45693 0.16378-0.97155 0.30136-1.5468l1.5465-5.4737c0.13758-0.52414 0.25453-1.0208 0.34819-1.4904 0.095-0.46673 0.14076-0.89615 0.14076-1.2827 0-0.69903-0.14473-1.188-0.43286-1.4629-0.28813-0.27411-0.83793-0.41328-1.6542-0.41328-0.39979 0-0.81069 0.064-1.2295 0.18785-0.42069 0.12436-0.78026 0.24448-1.0822 0.35613l0.41355-1.6875c1.0131-0.41249 1.9815-0.76571 2.9078-1.0589 0.9263-0.29396 1.8016-0.44106 2.6294-0.44106 1.4878 0 2.6358 0.35956 3.442 1.0787 0.80619 0.71967 1.2092 1.6526 1.2092 2.8022 0 0.23786-0.0265 0.65696-0.0833 1.256q-0.0836 0.90038-0.30983 1.6507l-1.5399 5.4517c-0.12621 0.43788-0.23972 0.93847-0.33841 1.5018-0.10186 0.5596-0.15054 0.98716-0.15054 1.274q0 1.0864 0.48498 1.4809 0.48868 0.3937 1.6849 0.39344c0.37439 0 0.80037-0.0664 1.2737-0.19685 0.47201-0.13044 0.81624-0.24501 1.0298-0.34528m0.39051-22.888c0 0.94986-0.35798 1.7611-1.0774 2.4281q-1.0763 1.0044-2.5937 1.0044c-1.0147 0-1.8814-0.33496-2.6072-1.0044-0.72443-0.66728-1.0874-1.4782-1.0874-2.4281q5.3e-4 -1.4224 1.0874-2.436 1.0861-1.0115 2.6072-1.0115 1.5171 5.3e-4 2.5937 1.0115c0.71993 0.67548 1.0774 1.4883 1.0774 2.436" stroke-width=".26458"/>
  <circle cx="100.22" cy="129.15" r="25.063" fill="none" stroke="#000" stroke-linecap="round" stroke-linejoin="round" stroke-width="5.011" style="paint-order:markers stroke fill"/>
 </g>
</svg>
