<?xml version="1.0" encoding="UTF-8" standalone="no"?>
<!-- Generator: Adobe Illustrator 19.0.0, SVG Export Plug-In . SVG Version: 6.00 Build 0)  -->

<!-- License: CC0. Made by SVG Repo: https://www.svgrepo.com/svg/219182/shovel -->

<svg
   version="1.1"
   id="Layer_1"
   x="0px"
   y="0px"
   viewBox="0 0 510.75824 511.65802"
   xml:space="preserve"
   sodipodi:docname="svgviewer-output(1).svg"
   width="510.75824"
   height="511.65802"
   inkscape:version="1.2.2 (b0a8486541, 2022-12-01)"
   xmlns:inkscape="http://www.inkscape.org/namespaces/inkscape"
   xmlns:sodipodi="http://sodipodi.sourceforge.net/DTD/sodipodi-0.dtd"
   xmlns="http://www.w3.org/2000/svg"
   xmlns:svg="http://www.w3.org/2000/svg"><defs
   id="defs11" /><sodipodi:namedview
   id="namedview9"
   pagecolor="#ffffff"
   bordercolor="#000000"
   borderopacity="0.25"
   inkscape:showpageshadow="2"
   inkscape:pageopacity="0.0"
   inkscape:pagecheckerboard="0"
   inkscape:deskcolor="#d1d1d1"
   showgrid="false"
   inkscape:zoom="0.81835938"
   inkscape:cx="219.95227"
   inkscape:cy="272.49642"
   inkscape:window-width="1920"
   inkscape:window-height="1008"
   inkscape:window-x="0"
   inkscape:window-y="0"
   inkscape:window-maximized="1"
   inkscape:current-layer="g4" />
<g
   id="g6"
   transform="translate(-1.0187136,-1.5173215)">
	<g
   id="g4">
		
	<path
   d="m 153.78453,326.55673 -38.396,-38.396 c -4.402,-4.401 -11.538,-4.401 -15.941,0 l -63.684989,63.685 c -28.4089999,28.409 -40.5059999,69.269 -32.1439999,108.566 l 6.8769999,32.315 c 1.171,5.502 5.469,9.8 10.972,10.971 l 32.314999,6.877 c 39.29799,8.364 80.15799,-3.735 108.56799,-32.145 l 63.685,-63.685 c 4.402,-4.401 4.401,-11.538 0,-15.941 l -38.396,-38.396"
   id="path349"
   style="fill:#7a7f87;fill-opacity:1" /><path
   d="m 506.51834,86.328322 -79.553,-79.5530005 c -7.009,-7.01100002 -18.377,-7.01000002 -25.389,-0.001 l -30.468,30.4679995 c -23.011,23.011 -27.7,57.49 -14.109,85.198999 l 33.828,33.878 c 27.281,13.445 61.82,9.27 85.226,-14.136 l 30.468,-30.468 c 7.008,-7.01 7.008,-18.375999 -0.003,-25.386998 z m -55.857,30.467998 c -14.958,14.958 -39.177,14.975 -54.152,0.012 -0.004,-0.004 -0.007,-0.008 -0.011,-0.012 -0.004,-0.004 -0.008,-0.007 -0.012,-0.011 -14.922,-14.934 -14.918,-39.223998 0.011,-54.151999 l 17.773,-17.773 54.164,54.164 z"
   id="path387"
   style="fill:#636363;fill-opacity:1" /><path
   d="m 358.12057,122.21656 -204.456,204.455 33.855,33.851 204.429,-204.428"
   id="path507"
   style="fill:#f4b400;fill-opacity:1" /></g>
</g>
</svg>
