<?xml version="1.0" encoding="UTF-8" standalone="no"?>
<!-- License: CC Attribution. Made by icon lauk: https://dribbble.com/iconlauk -->

<svg
   width="750"
   height="750"
   viewBox="0 0 30 30"
   enable-background="new 0 0 32 32"
   version="1.1"
   xml:space="preserve"
   id="svg83"
   sodipodi:docname="electronics.svg"
   inkscape:version="1.2.2 (b0a8486541, 2022-12-01)"
   xmlns:inkscape="http://www.inkscape.org/namespaces/inkscape"
   xmlns:sodipodi="http://sodipodi.sourceforge.net/DTD/sodipodi-0.dtd"
   xmlns="http://www.w3.org/2000/svg"
   xmlns:svg="http://www.w3.org/2000/svg"><defs
   id="defs87" /><sodipodi:namedview
   id="namedview85"
   pagecolor="#ffffff"
   bordercolor="#000000"
   borderopacity="0.25"
   inkscape:showpageshadow="2"
   inkscape:pageopacity="0.0"
   inkscape:pagecheckerboard="0"
   inkscape:deskcolor="#d1d1d1"
   showgrid="false"
   inkscape:zoom="1.0475"
   inkscape:cx="375.179"
   inkscape:cy="298.80668"
   inkscape:window-width="1920"
   inkscape:window-height="1008"
   inkscape:window-x="0"
   inkscape:window-y="0"
   inkscape:window-maximized="1"
   inkscape:current-layer="g73" />

<g
   id="Layer_2"
   transform="translate(-1,-1)" />

<g
   id="Layer_3"
   transform="translate(-1,-1)" />

<g
   id="Layer_4"
   transform="translate(-1,-1)" />

<g
   id="Layer_5"
   transform="translate(-1,-1)" />

<g
   id="Layer_6"
   transform="translate(-1,-1)" />

<g
   id="Layer_7"
   transform="translate(-1,-1)" />

<g
   id="Layer_8"
   transform="translate(-1,-1)" />

<g
   id="Layer_9"
   transform="translate(-1,-1)" />

<g
   id="Layer_10"
   transform="translate(-1,-1)" />

<g
   id="Layer_11"
   transform="translate(-1,-1)" />

<g
   id="Layer_12"
   transform="translate(-1,-1)" />

<g
   id="Layer_13"
   transform="translate(-1,-1)" />

<g
   id="Layer_14"
   transform="translate(-1,-1)" />

<g
   id="Layer_15"
   transform="translate(-1,-1)" />

<g
   id="Layer_16"
   transform="translate(-1,-1)" />

<g
   id="Layer_17"
   transform="translate(-1,-1)" />

<g
   id="Layer_18"
   transform="translate(-1,-1)" />

<g
   id="Layer_19"
   transform="translate(-1,-1)">

<g
   id="g21"
   style="fill:#000000">

<path
   d="M 16,8 C 15.4478,8 15,7.5522 15,7 V 2 c 0,-0.5522 0.4478,-1 1,-1 0.5522,0 1,0.4478 1,1 v 5 c 0,0.5522 -0.4478,1 -1,1 z"
   fill="#00ACBA"
   id="path19"
   style="fill:#000000" />

</g>

<g
   id="g25"
   style="fill:#000000">

<path
   d="M 11,8 C 10.4478,8 10,7.5522 10,7 V 2 c 0,-0.5522 0.4478,-1 1,-1 0.5522,0 1,0.4478 1,1 v 5 c 0,0.5522 -0.4478,1 -1,1 z"
   fill="#00ACBA"
   id="path23"
   style="fill:#000000" />

</g>

<g
   id="g29"
   style="fill:#000000">

<path
   d="M 21,8 C 20.4473,8 20,7.5522 20,7 V 2 c 0,-0.5522 0.4473,-1 1,-1 0.5527,0 1,0.4478 1,1 v 5 c 0,0.5522 -0.4473,1 -1,1 z"
   fill="#00ACBA"
   id="path27"
   style="fill:#000000" />

</g>

<g
   id="g33"
   style="fill:#000000">

<path
   d="m 16,31 c -0.5522,0 -1,-0.4478 -1,-1 v -5 c 0,-0.5522 0.4478,-1 1,-1 0.5522,0 1,0.4478 1,1 v 5 c 0,0.5522 -0.4478,1 -1,1 z"
   fill="#00ACBA"
   id="path31"
   style="fill:#000000" />

</g>

<g
   id="g37"
   style="fill:#000000">

<path
   d="m 11,31 c -0.5522,0 -1,-0.4478 -1,-1 v -5 c 0,-0.5522 0.4478,-1 1,-1 0.5522,0 1,0.4478 1,1 v 5 c 0,0.5522 -0.4478,1 -1,1 z"
   fill="#00ACBA"
   id="path35"
   style="fill:#000000" />

</g>

<g
   id="g41"
   style="fill:#000000">

<path
   d="m 21,31 c -0.5527,0 -1,-0.4478 -1,-1 v -5 c 0,-0.5522 0.4473,-1 1,-1 0.5527,0 1,0.4478 1,1 v 5 c 0,0.5522 -0.4473,1 -1,1 z"
   fill="#00ACBA"
   id="path39"
   style="fill:#000000" />

</g>

<g
   id="g45"
   style="fill:#000000">

<path
   d="m 30,17 h -5 c -0.5527,0 -1,-0.4478 -1,-1 0,-0.5522 0.4473,-1 1,-1 h 5 c 0.5527,0 1,0.4478 1,1 0,0.5522 -0.4473,1 -1,1 z"
   fill="#00ACBA"
   id="path43"
   style="fill:#000000" />

</g>

<g
   id="g49"
   style="fill:#000000">

<path
   d="m 30,12 h -5 c -0.5527,0 -1,-0.4478 -1,-1 0,-0.5522 0.4473,-1 1,-1 h 5 c 0.5527,0 1,0.4478 1,1 0,0.5522 -0.4473,1 -1,1 z"
   fill="#00ACBA"
   id="path47"
   style="fill:#000000" />

</g>

<g
   id="g53"
   style="fill:#000000">

<path
   d="m 30,22 h -5 c -0.5527,0 -1,-0.4478 -1,-1 0,-0.5522 0.4473,-1 1,-1 h 5 c 0.5527,0 1,0.4478 1,1 0,0.5522 -0.4473,1 -1,1 z"
   fill="#00ACBA"
   id="path51"
   style="fill:#000000" />

</g>

<g
   id="g57"
   style="fill:#000000">

<path
   d="M 7,17 H 2 C 1.4478,17 1,16.5522 1,16 1,15.4478 1.4478,15 2,15 h 5 c 0.5522,0 1,0.4478 1,1 0,0.5522 -0.4478,1 -1,1 z"
   fill="#00ACBA"
   id="path55"
   style="fill:#000000" />

</g>

<g
   id="g61"
   style="fill:#000000">

<path
   d="M 7,12 H 2 C 1.4478,12 1,11.5522 1,11 1,10.4478 1.4478,10 2,10 h 5 c 0.5522,0 1,0.4478 1,1 0,0.5522 -0.4478,1 -1,1 z"
   fill="#00ACBA"
   id="path59"
   style="fill:#000000" />

</g>

<g
   id="g65">

<path
   d="M 7,22 H 2 C 1.4478,22 1,21.5522 1,21 1,20.4478 1.4478,20 2,20 h 5 c 0.5522,0 1,0.4478 1,1 0,0.5522 -0.4478,1 -1,1 z"
   fill="#00ACBA"
   id="path63"
   style="fill:#000000" />

</g>

<g
   id="g69">

<path
   d="M 23,26 H 9 C 7.3457,26 6,24.6543 6,23 V 9 C 6,7.3457 7.3457,6 9,6 h 14 c 1.6543,0 3,1.3457 3,3 v 14 c 0,1.6543 -1.3457,3 -3,3 z M 9,8 C 8.4487,8 8,8.4487 8,9 v 14 c 0,0.5513 0.4487,1 1,1 h 14 c 0.5518,0 1,-0.4487 1,-1 V 9 C 24,8.4487 23.5518,8 23,8 Z"
   fill="#0181b0"
   id="path67" />

</g>

<g
   id="g73">



<rect
   style="fill:#013e4a;fill-opacity:1;stroke:none;stroke-width:0.168;stroke-linecap:round;stroke-linejoin:round;stroke-dasharray:none;paint-order:markers stroke fill"
   id="rect2484"
   width="11.476233"
   height="11.476233"
   x="10.242785"
   y="10.463721"
   ry="0.83519053" /></g>

</g>

<g
   id="Layer_20"
   transform="translate(-1,-1)" />

<g
   id="Layer_21"
   transform="translate(-1,-1)" />

<g
   id="Layer_22"
   transform="translate(-1,-1)" />

<g
   id="Layer_23"
   transform="translate(-1,-1)" />

<g
   id="Layer_24"
   transform="translate(-1,-1)" />

<g
   id="Layer_25"
   transform="translate(-1,-1)" />

<g
   id="Layer_26"
   transform="translate(-1,-1)" />

</svg>
